<?xml version="1.0" standalone="no"?>
<!DOCTYPE svg PUBLIC "-//W3C//DTD SVG 20010904//EN"
 "http://www.w3.org/TR/2001/REC-SVG-20010904/DTD/svg10.dtd">
<svg version="1.0" xmlns="http://www.w3.org/2000/svg"
 width="1920.000000pt" height="1080.000000pt" viewBox="0 0 1920.000000 1080.000000"
 preserveAspectRatio="xMidYMid meet">

<g transform="translate(0.000000,1080.000000) scale(0.100000,-0.100000)"
fill="#000000" stroke="none">
<path d="M6234 7128 c-35 -17 -44 -52 -44 -178 l0 -120 145 0 c142 0 147 -1
170 -25 l25 -24 0 -871 0 -872 29 -29 29 -29 136 0 136 0 0 900 0 901 25 24
c23 24 28 25 170 25 l145 0 0 126 c0 125 0 126 -29 155 l-29 29 -444 -1 c-283
0 -451 -4 -464 -11z"/>
<path d="M7403 7128 c-12 -6 -26 -22 -32 -37 -8 -18 -11 -330 -9 -1049 l3
-1024 24 -19 c20 -17 40 -19 162 -19 l139 0 0 440 c0 422 1 441 19 459 27 27
82 36 149 22 65 -13 96 -38 126 -101 20 -43 21 -64 24 -432 l4 -388 134 0
c130 0 136 1 159 25 l25 24 0 348 c-1 366 -9 457 -47 545 -27 59 -73 110 -122
134 -23 10 -41 21 -41 24 1 3 24 21 53 40 120 81 164 227 154 505 -8 219 -41
320 -132 404 -99 91 -193 110 -530 110 -147 0 -248 -4 -262 -11z m525 -318
c60 -37 72 -81 72 -280 0 -163 -2 -179 -22 -220 -13 -25 -38 -55 -56 -67 -37
-24 -124 -39 -171 -28 -59 13 -61 23 -61 309 0 253 1 260 22 283 19 20 31 23
102 23 64 0 88 -4 114 -20z"/>
<path d="M8589 7111 l-29 -30 2 -1031 3 -1032 24 -19 c22 -18 44 -19 418 -19
l394 0 24 25 c24 23 25 30 25 149 l0 125 -254 3 c-254 3 -255 3 -280 27 l-26
24 0 284 0 284 25 24 c24 25 25 25 225 25 l200 0 0 155 0 155 -199 0 c-185 0
-200 1 -225 21 l-26 20 0 243 c0 241 0 243 23 264 23 21 30 22 280 22 l257 0
0 129 c0 112 -3 132 -19 152 l-19 24 -397 3 -396 3 -30 -30z"/>
<path d="M9669 7111 l-29 -29 0 -1017 c0 -1080 -1 -1061 45 -1079 9 -3 192 -6
406 -6 l390 0 24 25 c24 23 25 30 25 149 l0 125 -254 3 c-254 3 -255 3 -280
27 l-26 24 0 284 0 284 25 24 c24 25 25 25 225 25 l200 0 0 155 0 155 -200 0
c-200 0 -201 0 -225 25 l-25 24 0 236 0 236 25 24 24 25 256 0 255 0 0 130 c0
126 -1 132 -25 155 l-24 25 -391 0 -392 0 -29 -29z"/>
<path d="M10715 7115 c-24 -23 -25 -29 -25 -155 l0 -130 239 0 c235 0 240 0
266 -23 20 -17 27 -32 27 -57 0 -22 -109 -311 -281 -751 l-281 -715 0 -127 c0
-119 1 -127 24 -154 l24 -28 360 0 360 0 26 24 c25 24 26 27 26 158 l0 133
-188 0 c-184 0 -189 1 -210 23 -13 14 -22 36 -22 55 0 17 124 344 277 734
l278 703 3 146 3 147 -27 21 c-26 21 -35 21 -441 21 l-414 0 -24 -25z"/>
<path d="M6856 4309 c-15 -4 -37 -16 -48 -26 -118 -106 4 -285 147 -217 142
67 53 287 -99 243z m91 -47 c45 -34 46 -118 4 -156 -45 -41 -130 -10 -146 51
-8 33 11 89 38 108 28 20 77 19 104 -3z"/>
<path d="M8413 4309 c-35 -10 -80 -58 -89 -95 -24 -94 68 -183 163 -160 42 11
93 69 93 105 l0 31 -70 0 c-56 0 -70 -3 -70 -15 0 -11 12 -15 50 -15 56 0 61
-9 25 -45 -48 -49 -129 -26 -150 43 -10 35 13 90 45 107 39 20 62 19 93 -5 26
-21 67 -27 67 -11 0 15 -60 61 -80 61 -10 0 -24 2 -32 4 -7 2 -27 0 -45 -5z"/>
<path d="M10193 4309 c-35 -10 -80 -58 -89 -95 -9 -35 3 -88 27 -118 25 -31
85 -51 132 -42 35 6 87 46 87 66 0 18 -33 11 -57 -12 -48 -45 -133 -14 -148
52 -8 35 16 95 43 109 32 17 77 13 97 -9 18 -20 65 -28 65 -11 0 15 -60 61
-80 61 -10 0 -24 2 -32 4 -7 2 -27 0 -45 -5z"/>
<path d="M10511 4312 c-63 -11 -101 -63 -101 -137 0 -126 174 -171 240 -62 24
38 26 97 5 137 -23 44 -89 72 -144 62z m90 -61 c73 -74 -2 -196 -96 -157 -38
16 -55 42 -55 85 0 92 88 134 151 72z"/>
<path d="M11963 4309 c-35 -10 -80 -58 -89 -95 -9 -35 3 -88 27 -118 25 -31
85 -51 132 -42 35 6 87 46 87 66 0 18 -33 11 -57 -12 -48 -45 -133 -14 -148
52 -8 35 16 95 43 109 32 17 77 13 97 -9 18 -20 65 -28 65 -11 0 15 -60 61
-80 61 -10 0 -24 2 -32 4 -7 2 -27 0 -45 -5z"/>
<path d="M6540 4180 c0 -123 1 -130 20 -130 18 0 20 7 20 55 l0 55 45 0 c54 0
95 33 95 75 0 14 -11 37 -25 50 -21 22 -33 25 -90 25 l-65 0 0 -130z m124 84
c33 -33 6 -74 -50 -74 -34 0 -34 0 -34 45 0 45 0 45 34 45 19 0 42 -7 50 -16z"/>
<path d="M7070 4298 c0 -7 16 -65 34 -128 30 -103 36 -115 57 -118 23 -3 26 4
48 82 13 46 27 90 31 96 7 12 19 -21 50 -137 9 -35 15 -43 34 -43 21 0 27 12
60 123 20 67 36 125 36 130 0 4 -9 7 -19 7 -15 0 -23 -16 -40 -82 -37 -142
-32 -145 -81 40 -9 34 -15 42 -34 42 -21 0 -26 -10 -51 -101 -15 -55 -31 -97
-35 -92 -4 4 -17 50 -30 101 -18 76 -26 92 -41 92 -11 0 -19 -6 -19 -12z"/>
<path d="M7480 4180 l0 -130 70 0 c56 0 70 3 70 15 0 11 -12 15 -50 15 l-50 0
0 45 0 45 45 0 c33 0 45 4 45 15 0 11 -12 15 -45 15 l-45 0 0 40 0 40 50 0
c38 0 50 4 50 15 0 12 -14 15 -70 15 l-70 0 0 -130z"/>
<path d="M7690 4180 c0 -123 1 -130 20 -130 18 0 20 7 20 55 0 41 4 55 14 55
8 0 29 -25 46 -55 25 -43 37 -55 56 -55 17 0 23 4 18 13 -4 6 -18 29 -32 51
l-24 39 25 21 c32 27 39 50 26 83 -15 41 -38 52 -106 53 l-63 0 0 -130z m118
88 c7 -7 12 -21 12 -33 0 -30 -19 -45 -57 -45 -32 0 -33 1 -33 45 0 44 1 45
33 45 18 0 38 -5 45 -12z"/>
<path d="M7940 4180 c0 -123 1 -130 20 -130 19 0 20 7 20 130 0 123 -1 130
-20 130 -19 0 -20 -7 -20 -130z"/>
<path d="M8050 4180 c0 -123 1 -130 20 -130 18 0 20 8 22 97 l3 97 64 -97 c43
-65 70 -97 82 -97 18 0 19 10 19 130 0 123 -1 130 -20 130 -17 0 -20 -8 -22
-92 l-3 -92 -60 92 c-46 70 -65 92 -82 92 -23 0 -23 -2 -23 -130z"/>
<path d="M8750 4180 c0 -123 1 -130 20 -130 18 0 20 7 20 55 0 76 25 76 65 0
23 -41 36 -55 53 -55 28 0 28 1 -8 58 l-29 47 29 23 c40 31 42 81 4 111 -21
16 -41 21 -90 21 l-64 0 0 -130z m128 88 c7 -7 12 -21 12 -33 0 -31 -19 -45
-62 -45 l-38 0 0 45 0 45 38 0 c21 0 43 -5 50 -12z"/>
<path d="M9000 4180 l0 -130 75 0 c59 0 75 3 75 14 0 11 -15 16 -52 18 l-53 3
-3 43 -3 42 45 0 c34 0 46 4 46 15 0 11 -12 15 -45 15 l-45 0 0 40 0 40 55 0
c42 0 55 3 55 15 0 12 -15 15 -75 15 l-75 0 0 -130z"/>
<path d="M9200 4295 c0 -10 11 -15 35 -15 l35 0 0 -115 c0 -108 1 -115 20
-115 19 0 20 7 20 115 l0 115 35 0 c24 0 35 5 35 15 0 12 -17 15 -90 15 -73 0
-90 -3 -90 -15z"/>
<path d="M9503 4278 c-6 -18 -26 -77 -46 -130 -35 -97 -35 -98 -13 -98 15 0
25 9 33 30 11 28 15 30 63 30 48 0 52 -2 63 -30 8 -21 18 -30 33 -30 22 0 22
1 -13 98 -20 53 -40 112 -46 130 -8 25 -16 32 -37 32 -21 0 -29 -7 -37 -32z
m60 -75 c9 -27 17 -51 17 -55 0 -5 -18 -8 -40 -8 -22 0 -40 3 -40 8 0 14 34
102 40 102 3 0 14 -21 23 -47z"/>
<path d="M9720 4180 c0 -123 1 -130 20 -130 19 0 20 7 20 130 0 123 -1 130
-20 130 -19 0 -20 -7 -20 -130z"/>
<path d="M9830 4180 l0 -130 60 0 c47 0 60 3 60 15 0 11 -11 15 -40 15 l-40 0
0 115 c0 108 -1 115 -20 115 -19 0 -20 -7 -20 -130z"/>
<path d="M10730 4180 c0 -123 1 -130 20 -130 18 0 20 7 20 87 0 48 4 83 8 78
5 -6 24 -45 42 -88 23 -52 39 -77 49 -75 8 2 32 41 52 88 l38 85 1 -87 c0 -87
0 -88 25 -88 l25 0 0 131 0 130 -26 -3 c-23 -3 -32 -15 -66 -93 -22 -49 -43
-94 -47 -98 -4 -4 -27 38 -51 93 -37 86 -47 100 -67 100 -23 0 -23 0 -23 -130z"/>
<path d="M11080 4180 c0 -123 1 -130 20 -130 18 0 20 7 21 88 l0 87 41 -88
c27 -57 46 -87 55 -85 8 2 31 41 51 87 l37 85 3 -87 c3 -79 5 -87 22 -87 19 0
20 8 20 131 0 129 0 130 -22 127 -17 -2 -31 -24 -64 -96 -22 -51 -43 -95 -46
-98 -3 -2 -25 40 -49 95 -37 84 -48 101 -66 101 -23 0 -23 -2 -23 -130z"/>
<path d="M11420 4180 l0 -130 75 0 c59 0 75 3 75 14 0 11 -15 16 -52 18 l-53
3 -3 43 -3 42 45 0 c34 0 46 4 46 15 0 11 -12 15 -45 15 l-45 0 0 40 0 40 55
0 c42 0 55 3 55 15 0 12 -15 15 -75 15 l-75 0 0 -130z"/>
<path d="M11640 4180 c0 -123 1 -130 20 -130 18 0 20 7 20 55 0 41 4 55 14 55
8 0 29 -25 46 -55 25 -43 37 -55 56 -55 17 0 23 4 18 13 -4 6 -18 29 -32 51
l-24 39 25 21 c32 27 39 50 26 83 -15 41 -38 52 -106 53 l-63 0 0 -130z m118
88 c7 -7 12 -21 12 -33 0 -30 -19 -45 -57 -45 -32 0 -33 1 -33 45 0 44 1 45
33 45 18 0 38 -5 45 -12z"/>
<path d="M12190 4180 l0 -130 70 0 c56 0 70 3 70 15 0 11 -12 15 -50 15 l-50
0 0 45 0 45 45 0 c33 0 45 4 45 15 0 11 -12 15 -45 15 l-45 0 0 40 0 40 50 0
c38 0 50 4 50 15 0 12 -14 15 -70 15 l-70 0 0 -130z"/>
</g>
</svg>
